<?xml version="1.0" encoding="UTF-8"?>
<svg width="20px" height="13px" viewBox="0 0 20 13" version="1.1" xmlns="http://www.w3.org/2000/svg" xmlns:xlink="http://www.w3.org/1999/xlink">
    <!-- Generator: Sketch 50.2 (55047) - http://www.bohemiancoding.com/sketch -->
    <title>united-kingdom</title>
    <desc>Created with Sketch.</desc>
    <defs></defs>
    <g id="excursapp.com" stroke="none" stroke-width="1" fill="none" fill-rule="evenodd">
        <g id="Desktop" transform="translate(-964.000000, -44.000000)" fill-rule="nonzero">
            <g id="Group-6" transform="translate(40.000000, 40.000000)">
                <g id="united-kingdom" transform="translate(924.000000, 4.000000)">
                    <path d="M19.6168421,12.9893601 L0.34417154,12.9893601 C0.15411306,12.9893601 0,12.8364167 0,12.6478006 L0,0.352238095 C0,0.163622024 0.15411306,0.0106785714 0.34417154,0.0106785714 L19.6168811,0.0106785714 C19.8069396,0.0106785714 19.9610526,0.163622024 19.9610526,0.352238095 L19.9610526,12.6478006 C19.9610136,12.8364167 19.8069006,12.9893601 19.6168421,12.9893601 Z" id="Shape" fill="#41479B"></path>
                    <path d="M19.9610136,0.352238095 C19.9610136,0.163622024 19.8069006,0.0106785714 19.6168421,0.0106785714 L18.077076,0.0106785714 L11.7012476,4.15624702 L11.7012476,0.0106785714 L8.25968811,0.0106785714 L8.25968811,4.15624702 L1.88389864,0.0106785714 L0.34417154,0.0106785714 C0.15411306,0.0106785714 0,0.163622024 0,0.352238095 L0,1.23558036 L5.47013645,4.79227976 L0,4.79227976 L0,8.20772024 L5.47013645,8.20772024 L0,11.7644583 L0,12.6478006 C0,12.8364167 0.15411306,12.9893601 0.34417154,12.9893601 L1.88393762,12.9893601 L8.25976608,8.84379167 L8.25976608,12.9893601 L11.7013255,12.9893601 L11.7013255,8.84379167 L18.077154,12.9893601 L19.6169201,12.9893601 C19.8069786,12.9893601 19.9610916,12.8364167 19.9610916,12.6478006 L19.9610916,11.7644583 L14.4909552,8.20775893 L19.9610136,8.20775893 L19.9610136,4.79231845 L14.4908772,4.79231845 L19.9610136,1.23558036 L19.9610136,0.352238095 Z" id="Shape" fill="#F5F5F5"></path>
                    <g id="Group" fill="#FF4B55">
                        <polygon id="Shape" points="19.9610136 5.47539881 11.0129825 5.47539881 11.0129825 0.0106785714 8.94803119 0.0106785714 8.94803119 5.47539881 0 5.47539881 0 7.52463988 8.94803119 7.52463988 8.94803119 12.9893601 11.0129825 12.9893601 11.0129825 7.52463988 19.9610136 7.52463988"></polygon>
                        <path d="M6.97653021,8.20772024 L0.00974658869,12.6956994 C0.0341130604,12.8606369 0.171150097,12.9893601 0.344132554,12.9893601 L0.818167641,12.9893601 L8.24077973,8.20772024 L6.97653021,8.20775893 L6.97653021,8.20772024 Z" id="Shape"></path>
                        <path d="M13.5044055,8.20772024 L12.2401559,8.20772024 L19.6519688,12.9822798 C19.8247173,12.9640179 19.9610526,12.8240357 19.9610526,12.6477619 L19.9610526,12.3669464 L13.5044055,8.20772024 Z" id="Shape"></path>
                        <path d="M0,0.729276786 L6.30717349,4.79231845 L7.571423,4.79231845 L0.200506823,0.0439910714 C0.0827680312,0.0982738095 0,0.214925595 0,0.352238095 L0,0.729276786 Z" id="Shape"></path>
                        <path d="M12.9655361,4.79231845 L19.9490448,0.293505952 C19.920039,0.13402381 19.7859259,0.0107172619 19.6168421,0.0107172619 L19.1237817,0.0107172619 L11.7012865,4.79231845 L12.9655361,4.79231845 Z" id="Shape"></path>
                    </g>
                </g>
            </g>
        </g>
    </g>
</svg>